<svg version="1.1" id="Layer_1" xmlns="http://www.w3.org/2000/svg" xmlns:xlink="http://www.w3.org/1999/xlink" x="0px" y="0px"
	 width="100%" viewBox="0 0 68 69" enable-background="new 0 0 68 69" xml:space="preserve">
<path fill="#313A4C" opacity="1.000000" stroke="none" 
	d="
M44.000038,70.000000 
	C29.333355,70.000000 15.166689,70.000000 1.000018,70.000000 
	C1.000012,47.000011 1.000012,24.000021 1.000006,1.000024 
	C23.666655,1.000016 46.333309,1.000016 68.999969,1.000008 
	C68.999985,23.999985 68.999985,46.999969 68.999992,69.999977 
	C60.833351,70.000000 52.666702,70.000000 44.000038,70.000000 
M50.954494,29.223799 
	C50.905865,28.812925 50.857231,28.402050 50.910851,27.207212 
	C50.861710,26.156849 50.812572,25.106483 50.730499,23.389259 
	C47.474392,20.640953 44.218285,17.892647 40.037689,15.017892 
	C33.694580,15.074684 27.351475,15.131476 20.511589,15.151804 
	C20.138922,15.339114 20.041792,15.621276 20.068611,16.845076 
	C20.117208,18.561687 20.165806,20.278297 20.058435,22.859398 
	C20.107927,24.903673 20.157417,26.947947 20.053885,29.857292 
	C20.100557,31.902573 20.147232,33.947853 20.044809,36.840851 
	C20.088692,38.558846 20.132574,40.276836 20.030815,42.901760 
	C20.022736,44.700157 19.839083,46.519985 20.055248,48.291012 
	C20.277781,50.114193 20.890085,51.889801 21.331841,53.686226 
	C23.528118,53.109394 25.724394,52.532566 28.390703,52.457981 
	C29.267839,52.588314 30.144976,52.718643 31.770681,52.971191 
	C32.525013,52.926258 33.279346,52.881325 34.780602,53.243519 
	C38.985275,53.482803 43.196194,53.926666 47.389645,53.798553 
	C48.289696,53.771053 49.766670,51.730862 49.873459,50.520393 
	C50.205017,46.762268 50.005192,42.957260 50.678688,39.015335 
	C52.053371,37.955139 53.428059,36.894943 54.681377,35.928349 
	C53.247780,33.657288 52.042908,31.748571 50.954494,29.223799 
z"/>
<path fill="#DCD5E3" opacity="1.000000" stroke="none" 
	d="
M20.206907,28.992222 
	C20.157417,26.947947 20.107927,24.903673 20.548378,22.443127 
	C27.673613,22.015436 34.308903,22.004017 41.132645,22.322824 
	C44.468536,23.120741 47.615986,23.588430 50.763432,24.056120 
	C50.812572,25.106483 50.861710,26.156849 50.640762,27.764317 
	C49.931492,28.888842 49.492306,29.456263 48.955849,30.265045 
	C48.581249,30.706326 48.303917,30.906244 47.858597,30.850340 
	C46.854458,30.059097 46.018311,29.523676 44.833733,28.735107 
	C38.230850,28.649982 31.976389,28.818007 25.328255,28.987972 
	C23.358688,28.990683 21.782799,28.991451 20.206907,28.992222 
z"/>
<path fill="#DFD9E6" opacity="1.000000" stroke="none" 
	d="
M40.944195,21.992599 
	C34.308903,22.004017 27.673613,22.015436 20.626362,22.010881 
	C20.165806,20.278297 20.117208,18.561687 20.300524,16.312475 
	C20.724766,15.609775 20.883410,15.412573 21.008368,15.188270 
	C27.351475,15.131476 33.694580,15.074684 40.511772,15.508329 
	C40.971970,17.996710 40.958080,19.994654 40.944195,21.992599 
z"/>
<path fill="#D7D0DF" opacity="1.000000" stroke="none" 
	d="
M20.130396,29.424755 
	C21.782799,28.991451 23.358688,28.990683 25.695951,29.227358 
	C32.698936,29.305954 38.940548,29.147104 45.182159,28.988255 
	C46.018311,29.523676 46.854458,30.059097 47.721268,31.111851 
	C47.128708,32.081635 46.505489,32.534084 45.695145,32.981224 
	C45.508015,32.975918 45.133736,32.964138 44.906532,32.923744 
	C44.679325,32.883350 44.220222,32.836044 43.809013,32.731636 
	C37.984913,32.627224 32.572021,32.627224 27.159130,32.627224 
	C27.173424,33.172085 27.187719,33.716946 27.202015,34.261806 
	C32.456131,34.261806 37.710243,34.261806 42.967529,34.507412 
	C42.973648,35.081738 42.977261,35.410454 42.648918,35.804085 
	C41.537373,36.230343 40.758446,36.591679 39.672401,36.976982 
	C38.954960,37.018204 38.544636,37.035458 37.661079,37.042385 
	C31.523205,36.685753 25.858555,36.339443 20.193905,35.993134 
	C20.147232,33.947853 20.100557,31.902573 20.130396,29.424755 
z"/>
<path fill="#CEC6D7" opacity="1.000000" stroke="none" 
	d="
M50.011543,39.170444 
	C50.005192,42.957260 50.205017,46.762268 49.873459,50.520393 
	C49.766670,51.730862 48.289696,53.771053 47.389645,53.798553 
	C43.196194,53.926666 38.985275,53.482803 34.427116,52.849724 
	C34.073627,52.455929 34.140759,52.079304 34.105740,52.074783 
	C34.070721,52.070259 34.066154,52.140732 34.401272,52.066353 
	C36.505611,50.589779 38.274834,49.187584 40.272079,47.745338 
	C40.781567,47.543205 40.973373,47.308010 41.043449,47.006531 
	C41.011372,47.013359 41.037563,47.073494 41.334045,46.916798 
	C43.735996,44.540329 45.841461,42.320560 48.118568,39.890244 
	C48.562386,39.441704 48.834560,39.203705 49.334766,39.008797 
	C49.562801,39.051888 50.011547,39.170444 50.011543,39.170444 
z"/>
<path fill="#CFC7D7" opacity="1.000000" stroke="none" 
	d="
M27.920671,51.955738 
	C25.724394,52.532566 23.528118,53.109394 21.331841,53.686226 
	C20.890085,51.889801 20.277781,50.114193 20.055248,48.291012 
	C19.839083,46.519985 20.022736,44.700157 20.426888,42.523445 
	C24.612431,42.123806 28.401903,42.102482 32.107853,42.433479 
	C29.272472,45.223103 27.052149,47.898273 27.920671,51.955738 
z"/>
<path fill="#D3CCDB" opacity="1.000000" stroke="none" 
	d="
M32.191376,42.081161 
	C28.401903,42.102482 24.612431,42.123806 20.499706,42.069981 
	C20.132574,40.276836 20.088692,38.558846 20.119358,36.416992 
	C25.858555,36.339443 31.523205,36.685753 37.595482,37.375435 
	C36.658451,39.127831 35.313797,40.536858 33.673355,41.975716 
	C32.982174,42.030758 32.586773,42.055962 32.191376,42.081161 
z"/>
<path fill="#E49659" opacity="1.000000" stroke="none" 
	d="
M32.107853,42.433483 
	C32.586773,42.055962 32.982174,42.030758 33.726070,42.320023 
	C37.800194,45.806538 35.446518,48.973202 34.066154,52.140732 
	C34.066154,52.140732 34.070721,52.070259 33.776329,52.076248 
	C32.661999,52.337818 31.842054,52.593399 31.022112,52.848976 
	C30.144976,52.718643 29.267839,52.588314 28.155687,52.206860 
	C27.052149,47.898273 29.272472,45.223103 32.107853,42.433483 
z"/>
<path fill="#C0BAC5" opacity="1.000000" stroke="none" 
	d="
M41.132645,22.322823 
	C40.958080,19.994654 40.971970,17.996710 40.974018,15.571554 
	C44.218285,17.892647 47.474392,20.640953 50.746964,23.722691 
	C47.615986,23.588430 44.468536,23.120741 41.132645,22.322823 
z"/>
<path fill="#E06D5D" opacity="1.000000" stroke="none" 
	d="
M50.345116,39.092888 
	C50.011547,39.170444 49.562801,39.051888 49.284916,38.685051 
	C48.622158,37.553558 48.237282,36.788902 47.808311,35.720112 
	C47.136902,34.606167 46.509586,33.796352 45.882271,32.986534 
	C46.505489,32.534084 47.128708,32.081635 47.889259,31.367672 
	C48.303917,30.906244 48.581249,30.706326 49.250122,30.211735 
	C50.040459,29.891325 50.439251,29.865589 50.838039,29.839853 
	C52.042908,31.748571 53.247780,33.657288 54.681377,35.928349 
	C53.428059,36.894943 52.053371,37.955139 50.345116,39.092888 
z"/>
<path fill="#E08951" opacity="1.000000" stroke="none" 
	d="
M31.396397,52.910084 
	C31.842054,52.593399 32.661999,52.337818 33.811348,52.080772 
	C34.140759,52.079304 34.073627,52.455929 34.053654,52.646160 
	C33.279346,52.881325 32.525013,52.926258 31.396397,52.910084 
z"/>
<path fill="#C0BAC5" opacity="1.000000" stroke="none" 
	d="
M50.896267,29.531826 
	C50.439251,29.865589 50.040459,29.891325 49.347397,29.970371 
	C49.492306,29.456263 49.931492,28.888842 50.589638,28.156300 
	C50.857231,28.402050 50.905865,28.812925 50.896267,29.531826 
z"/>
<path fill="#CFC7D7" opacity="1.000000" stroke="none" 
	d="
M20.759979,15.170036 
	C20.883410,15.412573 20.724766,15.609775 20.376316,15.889082 
	C20.041792,15.621276 20.138922,15.339114 20.759979,15.170036 
z"/>
<path fill="#A9A4B0" opacity="1.000000" stroke="none" 
	d="
M44.833733,28.735107 
	C38.940548,29.147104 32.698936,29.305954 26.089626,29.225416 
	C31.976389,28.818007 38.230850,28.649982 44.833733,28.735107 
z"/>
<path fill="#E08951" opacity="1.000000" stroke="none" 
	d="
M34.401272,52.066353 
	C35.446518,48.973202 37.800194,45.806538 34.021858,42.290184 
	C35.313797,40.536858 36.658451,39.127831 38.068707,37.385757 
	C38.544636,37.035458 38.954960,37.018204 39.613457,37.324051 
	C40.253605,40.789265 40.645584,43.931381 41.037563,47.073494 
	C41.037563,47.073494 41.011372,47.013359 40.863358,47.127010 
	C40.477535,47.404926 40.253769,47.586502 40.044052,47.785385 
	C38.274834,49.187584 36.505611,50.589779 34.401272,52.066353 
z"/>
<path fill="#DA7850" opacity="1.000000" stroke="none" 
	d="
M41.334045,46.916798 
	C40.645584,43.931381 40.253605,40.789265 39.920570,37.300083 
	C40.758446,36.591679 41.537373,36.230343 42.910645,35.979042 
	C43.992184,36.743591 44.479378,37.398106 45.103767,38.345715 
	C46.142956,39.126137 47.044945,39.613464 47.946930,40.100792 
	C45.841461,42.320560 43.735996,44.540329 41.334045,46.916798 
z"/>
<path fill="#9A95A0" opacity="1.000000" stroke="none" 
	d="
M42.964359,34.261806 
	C37.710243,34.261806 32.456131,34.261806 27.202015,34.261806 
	C27.187719,33.716946 27.173424,33.172085 27.159130,32.627224 
	C32.572021,32.627224 37.984913,32.627224 43.747643,33.018471 
	C44.071152,33.602413 44.044823,33.795109 43.756004,34.060318 
	C43.317127,34.175823 43.140743,34.218815 42.964359,34.261806 
z"/>
<path fill="#D1CBD7" opacity="1.000000" stroke="none" 
	d="
M42.967529,34.507412 
	C43.140743,34.218815 43.317127,34.175823 43.964783,33.917454 
	C44.668613,33.456097 44.901176,33.210117 45.133736,32.964138 
	C45.133736,32.964138 45.508015,32.975918 45.695145,32.981224 
	C46.509586,33.796352 47.136902,34.606167 47.512100,35.792179 
	C46.495510,36.796459 45.731041,37.424541 44.966568,38.052620 
	C44.479378,37.398106 43.992184,36.743591 43.243263,35.914120 
	C42.977261,35.410454 42.973648,35.081738 42.967529,34.507412 
z"/>
<path fill="#B9B3BF" opacity="1.000000" stroke="none" 
	d="
M44.906532,32.923744 
	C44.901176,33.210117 44.668613,33.456097 44.227272,33.844940 
	C44.044823,33.795109 44.071152,33.602413 44.158852,33.122883 
	C44.220222,32.836044 44.679325,32.883350 44.906532,32.923744 
z"/>
<path fill="#E1DAF0" opacity="1.000000" stroke="none" 
	d="
M45.103767,38.345715 
	C45.731041,37.424541 46.495510,36.796459 47.556190,36.096310 
	C48.237282,36.788902 48.622158,37.553558 49.056881,38.641960 
	C48.834560,39.203705 48.562386,39.441704 48.118568,39.890244 
	C47.044945,39.613464 46.142956,39.126137 45.103767,38.345715 
z"/>
<path fill="#DA7850" opacity="1.000000" stroke="none" 
	d="
M40.272079,47.745338 
	C40.253769,47.586502 40.477535,47.404926 40.895435,47.120178 
	C40.973373,47.308010 40.781567,47.543205 40.272079,47.745338 
z"/>
</svg>